<svg xmlns="http://www.w3.org/2000/svg" viewBox="0 122.14 841.89 276"><title>Graphic, Web Design and Digital Marketing Agency | JUMP logo</title>
    <path class="c-Logo" fill="#fff" d="M741.382 127.994H719.16v18.052h20.725c47.2 0 79.414 21.812 79.414 63.558v.752c0 39.112-32.97 64.686-81.67 64.686h-18.47v18.052h17.35c54.69 0 102.267-28.582 102.267-83.867v-.752c0-50.77-39.71-80.48-97.4-80.48zm-103.424-.028L533.798 283.63l-104.16-155.664h-23.105l23.474 34.606v-.014l9.852 14.54 92.91 136.987h1.39l102.68-151.527v228.607h19.274v-263.2h-18.16zM4.912 343.77l16.028-10.065c16.032 27.22 33.56 41.383 64.136 41.383 32.074 0 56.685-24.23 56.685-69.72V127.893h19.39v176c0 30.178-9.32 53.31-23.86 67.842-13.8 13.793-32.44 20.88-53.32 20.88-38.78 0-63.02-20.14-79.05-48.847v.002zm323.342 31.427c-55.093 0-88.223-35.363-88.223-96.784V128.025h-19.35v152.25c0 72.96 44.3 112.418 106.84 112.418 38.04 0 68.94-14.396 87.55-42.13l-9.625-14.187c-13.42 19.094-36.403 38.82-77.18 38.82h-.002z"></path></svg>